<?xml version="1.0" encoding="utf-8"?>
<!-- Generator: Adobe Illustrator 16.0.0, SVG Export Plug-In . SVG Version: 6.00 Build 0)  -->
<!DOCTYPE svg PUBLIC "-//W3C//DTD SVG 1.1//EN" "http://www.w3.org/Graphics/SVG/1.1/DTD/svg11.dtd">
<svg version="1.1" id="Layer_1" xmlns="http://www.w3.org/2000/svg" xmlns:xlink="http://www.w3.org/1999/xlink" x="0px" y="0px"
	 width="151.27px" height="160.912px" viewBox="0 0 151.27 160.912" enable-background="new 0 0 151.27 160.912"
	 xml:space="preserve">
<path fill="#FFFFFF" d="M33.758,143.901c0,0-1.121-4.766,1.683-4.484s8.411,8.131,4.206,11.495s-19.625-2.806-17.663-9.813
	s7.29-12.056,7.29-12.056s8.131-6.449,2.243-16.263c-5.889-9.812-9.533-16.541-5.889-19.346c3.646-2.804,12.058,5.047,12.897,7.01
	c0.84,1.964-0.562,3.926-1.963,4.205c-1.402,0.281-3.925,1.684-1.122,2.244c2.803,0.56,10.374-1.121,6.449-7.01
	c-3.926-5.888-14.02-10.375-17.944-8.973s-4.767,7.57-3.646,13.458c1.122,5.888,9.813,16.542,4.768,25.233
	c-5.046,8.69-7.851,21.588-3.364,25.514s14.859,6.729,19.345,1.683c4.486-5.046,3.084-12.056,0.562-17.103
	c-2.523-5.047-7.57-5.328-9.813-3.926c-2.242,1.401-3.364,4.486-1.963,6.448C31.235,144.181,33.758,143.901,33.758,143.901z"/>
<path fill="#FFFFFF" d="M64.879,115.024c0,0,1.684-1.963,0.842-4.205c-0.843-2.243-3.364-4.487-10.094-3.646
	c-6.729,0.842-12.896,10.936-11.495,17.944c1.402,7.008,11.775,14.86,22.71,8.131c10.936-6.729,15.422-19.347,14.02-30.562
	S72.17,83.901,68.525,79.696c-3.646-4.205-6.168-6.167-7.29-5.887c-1.121,0.28-0.841,2.522,1.399,3.924
	c13.104,8.198,18.822,53.329-1.961,55.515c-5.326,0.562-12.056-5.048-10.374-11.776c1.683-6.728,4.205-10.935,7.57-11.494
	c3.365-0.561,4.206,1.683,4.486,2.522C62.635,113.34,64.879,115.024,64.879,115.024z"/>
<path fill="#FFFFFF" d="M51.421,55.585c0,0,5.889,11.214,1.963,20.187C49.459,84.745,43.01,87.828,35.16,86.987
	c-7.85-0.842-15.701-12.617-15.42-19.066c0.281-6.449,4.205-10.374,7.85-9.252c3.646,1.122,9.533,7.009,8.973,12.056
	c-0.562,5.047-3.365,2.804-4.486,1.963s-1.683-3.645,0-3.084s3.926-0.281,1.683-3.365c-2.242-3.084-4.766-3.364-7.009-3.646
	c-2.243-0.281-6.168,3.084-3.645,7.009c2.522,3.925,13.198,15.471,22.148,9.812c5.868-3.709,7.851-8.411,7.57-13.738
	c-0.28-5.327-3.084-9.533-3.084-9.533L51.421,55.585z"/>
<path fill="#FFFFFF" d="M135.063,34.579c0,0-4.758-1.15-4.494,1.655c0.261,2.807,8.08,8.461,11.471,4.274
	s-2.688-19.642-9.708-17.721c-7.021,1.922-12.101,7.217-12.101,7.217s-6.496,8.092-16.274,2.147
	c-9.775-5.947-16.484-9.632-19.309-6.004c-2.828,3.628,4.974,12.087,6.931,12.939c1.959,0.853,3.93-0.538,4.217-1.938
	c0.29-1.399,1.708-3.915,2.25-1.109c0.545,2.808-1.182,10.368-7.047,6.407c-5.862-3.96-10.292-14.08-8.864-17.996
	c1.425-3.918,7.6-4.722,13.479-3.565c5.88,1.157,16.483,9.911,25.206,4.917c8.72-4.995,21.632-7.721,25.532-3.212
	c3.897,4.508,6.64,14.898,1.567,19.354c-5.073,4.457-12.075,3.013-17.106,0.46c-5.031-2.554-5.283-7.601-3.867-9.837
	c1.414-2.234,4.509-3.337,6.461-1.925C135.36,32.058,135.063,34.579,135.063,34.579z"/>
<path fill="#FFFFFF" d="M105.103,64.546c0,0-1.893,1.762-4.166,1.013c-2.276-0.75-4.623-3.179-4.058-9.936
	c0.567-6.757,10.4-13.333,17.459-12.22c7.062,1.113,15.328,11.156,9.056,22.359c-6.278,11.201-18.698,16.198-29.963,15.257
	c-11.263-0.943-19.125-7.917-23.478-11.387c-4.35-3.469-6.415-5.91-6.179-7.042c0.231-1.131,2.486-0.943,3.978,1.241
	c1.493,2.183,7.333,7.839,14.957,8.929c7.622,1.089,17.439,0.968,24.396-0.438c6.956-1.408,15.692-7.378,16.036-12.724
	c0.34-5.345-5.538-11.839-12.192-9.882s-10.753,4.647-11.175,8.033c-0.423,3.386,1.853,4.135,2.703,4.38
	C103.331,62.375,105.103,64.546,105.103,64.546z"/>
<path fill="#FFFFFF" d="M52.927,53.825c0,0,4.896,3.846,13.892-0.026c8.996-3.871,12.118-10.303,11.325-18.157
	c-0.795-7.856-12.524-15.777-18.975-15.533c-6.45,0.24-10.398,4.143-9.299,7.794c1.102,3.651,6.952,9.575,12.002,9.045
	c5.049-0.533,2.824-3.349,1.989-4.476c-0.834-1.126-3.634-1.704-3.083-0.019c0.55,1.687-0.305,3.924-3.375,1.663
	c-3.07-2.262-3.336-4.786-3.604-7.031c-0.268-2.244,3.121-6.15,7.031-3.602c3.911,2.546,15.393,13.288,9.68,22.207
	c-3.742,5.846-6.283,6.026-10.209,6.885c-4,0.875-6.625,0-6.625,0L52.927,53.825z"/>
<path fill="#FFFFFF" d="M48.677,52.075c0,0,3.875,1.75,2.375-1s-1.75-2.125-2.375-4.625s-3.375-20.375-5.5-25.75
	s-5-8.875-6.5-11.625s-2.5-6.5-2.5-6.5s0.375,10.5,2.25,17s6.375,21.375,6.375,21.375s2.25,5.25,0.75,5s-11-2.625-14.75-3.75
	s-11.5-3-16.75-3.125s-9.875,0.25-9.875,0.25s17.125,6.75,25.125,8.25s18.5,2.375,18.5,2.375L48.677,52.075z"/>
<path fill="#FFFFFF" d="M23.427,37.45c0,0-8.5-8.625-11.125-10.125s-7.125-3.75-7.125-3.75s3.25,7.375,8.75,9.75
	S23.427,37.45,23.427,37.45z"/>
<path fill="#FFFFFF" d="M39.927,42.2c0,0-10.75-2.375-17.25-9S9.552,19.7,9.552,19.7s15.75,10.5,19,12.5S39.927,42.2,39.927,42.2z"
	/>
<path fill="#FFFFFF" d="M38.802,36.95c0,0-8.875-9.25-12.125-12.75s-7.875-6.75-7.875-6.75s2.375,7.75,6.25,9.75
	S38.802,36.95,38.802,36.95z"/>
<path fill="#FFFFFF" d="M37.302,30.575c0,0-3-10.625-7-16.375s-9.25-10.875-9.25-10.875s5.5,14.25,8.5,18.25
	S37.302,30.575,37.302,30.575z"/>
</svg>
