<?xml version="1.0" encoding="utf-8"?>
<!-- Generator: Adobe Illustrator 16.0.0, SVG Export Plug-In . SVG Version: 6.00 Build 0)  -->
<!DOCTYPE svg PUBLIC "-//W3C//DTD SVG 1.1//EN" "http://www.w3.org/Graphics/SVG/1.1/DTD/svg11.dtd">
<svg version="1.1" id="Layer_1" xmlns="http://www.w3.org/2000/svg" xmlns:xlink="http://www.w3.org/1999/xlink" x="0px" y="0px"
	 width="206px" height="18px" viewBox="0 0 206 18" enable-background="new 0 0 206 18" xml:space="preserve">
<path fill="#6E5A49" d="M0.798,9.852c-1.757-2.715-0.05-7.225,2.538-8.5s8.008,0.038,15.27,1.827
	c7.262,1.791,27.293,3.21,38.673,4.055C68.66,8.08,88.723,7.709,91.98,7.961s4.98-2.615,6.438-2.232
	c1.459,0.38-0.219,1.818-0.911,2.232c-0.692,0.414-5.874,1.063-8.439,1.051c-2.565-0.013-18.145,0.149-37.659-1.051
	C31.895,6.762,14.207,4.16,10.644,3.18S3.649,1.658,1.678,5.545c-1.971,3.887,3.128,6.104,3.487,6.072
	c0.359-0.033,3.114-0.556,3.284-3.656c0.112-2.066-1.038-2.066-3.454,0c-0.366-1.717-0.366-2.826,0-3.328
	c0.549-0.752,3.782,0.359,4.833,1.096c1.051,0.734,1.696,4.05-1.379,6.132C5.374,13.942,2.556,12.565,0.798,9.852z M196.167,5.729
	c1.052-0.737,4.285-1.848,4.833-1.096c0.366,0.502,0.366,1.61,0,3.327c-2.415-2.065-3.566-2.065-3.454,0
	c0.17,3.102,2.925,3.625,3.284,3.656c0.359,0.032,5.458-2.185,3.486-6.072c-1.972-3.885-5.402-3.344-8.967-2.364
	c-3.563,0.979-21.25,3.582-40.765,4.78c-19.513,1.2-35.095,1.038-37.659,1.052c-2.564,0.014-7.746-0.638-8.438-1.052
	c-0.692-0.414-2.37-1.851-0.911-2.231c1.459-0.383,3.181,2.483,6.438,2.231c3.256-0.252,23.319,0.119,34.7-0.727
	c11.38-0.845,31.41-2.264,38.673-4.055c7.264-1.79,12.684-3.104,15.271-1.828s4.295,5.785,2.537,8.5
	c-1.758,2.714-4.574,4.091-7.65,2.009C194.473,9.778,195.117,6.463,196.167,5.729z M94.141,12.951c1.276-0.625,3.011-1.346,3.62,0
	c0.406,0.898,0.154,1.571-0.758,2.021c0.286-1.895-0.048-2.566-1.003-2.021c-1.432,0.819-2.509,5.338,0,4.202
	c2.509-1.135,4.053-3.021,4.864-4.284c0.541-0.843,1.008-2.334,1.4-4.476c-0.05,3.952-0.761,6.444-2.133,7.479
	c-2.057,1.554-4.914,2.047-5.989,1.28C93.067,16.387,92.865,13.576,94.141,12.951z M106.134,15.873
	c-1.37-1.035-2.082-3.527-2.133-7.479c0.392,2.142,0.858,3.633,1.399,4.476c0.811,1.264,2.354,3.15,4.863,4.284
	c2.51,1.134,1.432-3.382,0-4.202c-0.953-0.545-1.289,0.127-1.002,2.021c-0.912-0.45-1.164-1.124-0.759-2.021
	c0.608-1.346,2.345-0.625,3.62,0s1.074,3.436,0,4.202C111.048,17.92,108.189,17.427,106.134,15.873z"/>
</svg>
