<?xml version="1.0" encoding="utf-8"?>
<!-- Generator: Adobe Illustrator 16.0.0, SVG Export Plug-In . SVG Version: 6.00 Build 0)  -->
<!DOCTYPE svg PUBLIC "-//W3C//DTD SVG 1.1//EN" "http://www.w3.org/Graphics/SVG/1.1/DTD/svg11.dtd">
<svg version="1.1" xmlns="http://www.w3.org/2000/svg" xmlns:xlink="http://www.w3.org/1999/xlink" x="0px" y="0px" width="512px"
	 height="512px" viewBox="0 0 512 512" enable-background="new 0 0 512 512" xml:space="preserve">
<g id="Capa_1">
	<g>
		<path fill="#FFDA44" d="M197.383,57.379c-11.376,0-22.064,4.433-30.096,12.482c-3.901,3.91-3.894,10.241,0.016,14.142
			c3.91,3.901,10.241,3.894,14.142-0.016c4.252-4.262,9.912-6.608,15.938-6.608c6.025,0,11.685,2.347,15.937,6.608
			c1.954,1.958,4.516,2.937,7.079,2.937c2.555,0,5.111-0.974,7.063-2.921c3.91-3.901,3.917-10.232,0.016-14.142
			C219.447,61.812,208.759,57.379,197.383,57.379z"/>
		<path fill="#FFDA44" d="M404.812,166.277h-51.226V150.73c10.886-9.353,17.802-23.208,17.802-38.657
			c0-28.084-22.848-50.932-50.932-50.932c-1.212,0-2.42,0.042-3.621,0.125c-9.292-20.001-29.632-33.346-52.163-33.346
			c-5.039,0-9.977,0.642-14.767,1.916C239.96,11.655,220.776,0,199.48,0c-23.297,0-44.071,13.856-53.024,35.331
			c-4.52,8.963-17.813,10.862-40.613,11.214c-31.389,0.308-56.926,26.093-56.926,57.479c0,16.317,6.845,31.055,17.801,41.528
			v197.034c0,5.523,4.477,10,10,10c5.523,0,10-4.477,10-10V158.033c6.141,2.245,12.769,3.471,19.677,3.471h14.825
			c1.217,0,2.245,1.028,2.245,2.245v16.016c0,18.657,14.017,33.272,31.911,33.272c17.58,0,31.882-14.303,31.882-31.883V156.01
			c0-7.068,5.75-12.818,12.818-12.818c7.068,0,12.818,5.75,12.818,12.818v44.106c0,18.252,14.849,33.102,33.101,33.102
			s33.103-14.849,33.103-33.102v-28.375c0-4.802,3.905-8.708,8.707-8.708h32.653c4.539,0,8.938-0.606,13.13-1.726v279.635
			c0,3.426-2.773,6.214-6.186,6.214h-234.5c-3.411,0-6.185-2.788-6.185-6.214V335.865c0-5.523-4.477-10-10-10
			c-5.523,0-10,4.477-10,10v105.078c0,10.91,6.694,20.28,16.185,24.223v19.288c0,15.188,12.357,27.546,27.545,27.546h199.407
			c15.189,0,27.547-12.357,27.547-27.546v-19.288c9.49-3.941,16.185-13.312,16.185-24.223v-8.992h51.226
			c32.131,0,58.271-26.128,58.271-58.245V224.522C463.084,192.406,436.943,166.277,404.812,166.277L404.812,166.277z
			 M317.402,484.454c0,4.09-3.457,7.546-7.547,7.546H110.448c-4.09,0-7.545-3.456-7.545-7.546v-17.297h214.5V484.454
			L317.402,484.454z M320.457,143.034h-32.652c-15.83,0-28.709,12.878-28.709,28.708v28.375c0,7.224-5.877,13.102-13.102,13.102
			c-7.225,0-13.101-5.877-13.101-13.102V156.01c0-18.096-14.722-32.818-32.818-32.818c-18.096,0-32.818,14.722-32.818,32.818v25.143
			c0,6.552-5.331,11.883-11.882,11.883c-6.79,0-11.911-5.706-11.911-13.272v-16.016c0-12.266-9.979-22.245-22.245-22.245h-14.825
			c-20.666,0-37.478-16.813-37.478-37.479c0-20.466,16.653-37.279,37.179-37.48c20.205-0.312,47.876-0.738,58.486-22.75
			c0.087-0.181,0.168-0.364,0.245-0.55C170.613,29.124,184.215,20,199.48,20c16.154,0,30.443,10.276,35.557,25.57
			c0.904,2.704,2.919,4.894,5.54,6.019c2.62,1.125,5.595,1.077,8.18-0.131c5.02-2.347,10.375-3.537,15.917-3.537
			c16.66,0,31.483,11.188,36.047,27.208c1.482,5.205,6.84,8.286,12.082,6.952c2.449-0.623,5.025-0.938,7.655-0.938
			c17.056,0,30.931,13.876,30.931,30.932C351.387,129.145,337.512,143.034,320.457,143.034L320.457,143.034z M353.587,227.208
			h48.539V371.02h-48.539V227.208z M443.084,373.707c0,21.088-17.169,38.245-38.271,38.245h-51.226V391.02h51.226
			c9.385,0,17.312-7.928,17.312-17.312V224.522c0-9.385-7.929-17.313-17.312-17.313h-51.226v-20.931h51.226
			c21.103,0,38.271,17.156,38.271,38.245V373.707z"/>
	</g>
</g>
<g id="Layer_2" display="none">
	<path display="inline" fill="#FFDA44" d="M300.468,245.838c0-5.523-4.477-10-10-10c-5.522,0-10,4.477-10,10v0.057
		c0,5.523,4.478,9.972,10,9.972C295.991,255.867,300.468,251.361,300.468,245.838z"/>
	<path display="inline" fill="#FFDA44" d="M152.427,345.452c-21.769,0-39.479,17.723-39.479,39.508
		c0,21.769,17.71,39.479,39.479,39.479c21.769,0,39.479-17.711,39.479-39.479C191.906,363.175,174.196,345.452,152.427,345.452z
		 M152.427,404.439c-10.741,0-19.479-8.738-19.479-19.479c0-10.757,8.738-19.508,19.479-19.508c10.741,0,19.479,8.751,19.479,19.508
		C171.906,395.701,163.168,404.439,152.427,404.439z"/>
	<path display="inline" fill="#FFDA44" d="M234.435,311.657c0,17.877,14.544,32.421,32.42,32.421
		c17.877,0,32.422-14.544,32.422-32.421s-14.545-32.423-32.422-32.423C248.979,279.234,234.435,293.78,234.435,311.657z
		 M279.277,311.657c0,6.849-5.572,12.421-12.422,12.421c-6.849,0-12.42-5.572-12.42-12.421c0-6.851,5.572-12.423,12.42-12.423
		C273.705,299.234,279.277,304.809,279.277,311.657z"/>
	<path display="inline" fill="#FFDA44" d="M139.757,231.841c-17.877,0-32.421,14.544-32.421,32.421s14.544,32.422,32.421,32.422
		s32.421-14.543,32.421-32.422C172.178,246.384,157.634,231.841,139.757,231.841z M139.757,276.686
		c-6.849,0-12.421-5.572-12.421-12.422s5.572-12.422,12.421-12.422c6.849,0,12.421,5.572,12.421,12.422
		C152.177,271.111,146.606,276.686,139.757,276.686z"/>
	<path display="inline" fill="#FFDA44" d="M208.233,316.986c0-5.523-4.477-10-10-10s-10,4.477-10,10v0.057
		c0,5.523,4.477,9.972,10,9.972S208.233,322.509,208.233,316.986L208.233,316.986z"/>
	<path display="inline" fill="#FFDA44" d="M256.855,407.24v0.057c0,5.523,4.478,9.972,10,9.972c5.523,0,10-4.505,10-10.027
		c0-5.523-4.477-10-10-10C261.333,397.241,256.855,401.717,256.855,407.24L256.855,407.24z"/>
</g>
</svg>
