<?xml version="1.0" encoding="iso-8859-1"?>
<!-- Generator: Adobe Illustrator 19.0.0, SVG Export Plug-In . SVG Version: 6.00 Build 0)  -->
<svg xmlns="http://www.w3.org/2000/svg" xmlns:xlink="http://www.w3.org/1999/xlink" version="1.1" id="Capa_1" x="0px" y="0px" viewBox="0 0 512 512" style="enable-background:new 0 0 512 512;" xml:space="preserve" width="512px" height="512px">
<g>
	<g>
		<circle cx="186.182" cy="174.545" r="11.636" fill="#FFDA44"/>
	</g>
</g>
<g>
	<g>
		<circle cx="244.364" cy="197.818" r="11.636" fill="#FFDA44"/>
	</g>
</g>
<g>
	<g>
		<circle cx="209.454" cy="232.727" r="11.636" fill="#FFDA44"/>
	</g>
</g>
<g>
	<g>
		<path d="M395.636,0c-45.382,0-81.455,36.073-81.455,81.455c0,6.982,4.655,11.636,11.636,11.636H384v23.273H93.091    c-6.982,0-11.636,4.655-11.636,11.636s4.655,11.636,11.636,11.636h289.745c-5.818,26.764-29.091,46.545-57.018,46.545h-23.273    c-6.982,0-11.636,4.655-11.636,11.636v11.636c0,38.4-31.418,69.818-69.818,69.818c-38.4,0-69.818-31.418-69.818-69.818v-11.636    c0-6.982-4.655-11.636-11.636-11.636h-23.273c-32.582,0-58.182-25.6-58.182-58.182V93.091h221.091    c6.982,0,11.636-4.655,11.636-11.636s-4.655-11.636-11.636-11.636H46.545c-6.982,0-11.636,4.655-11.636,11.636V128    c0,45.382,36.073,81.455,81.455,81.455H128c0,47.709,36.073,86.109,81.455,91.927v164.073c0,12.8-10.473,23.273-23.273,23.273    h-34.909c-6.982,0-11.636,4.655-11.636,11.636S144.291,512,151.273,512h34.909H256h34.909c6.982,0,11.636-4.655,11.636-11.636    s-4.655-11.636-11.636-11.636H256c-12.8,0-23.273-10.473-23.273-23.273V301.382c45.382-5.818,81.455-45.382,81.455-91.927h11.636    c45.382,0,81.455-36.073,81.455-81.455V81.455c0-6.982-4.655-11.636-11.636-11.636h-57.018    c4.655-23.273,22.109-40.727,45.382-45.382v22.109c0,6.982,4.655,11.636,11.636,11.636c6.982,0,11.636-4.655,11.636-11.636V24.436    c23.273,4.655,40.727,22.109,45.382,45.382h-22.109c-6.982,0-11.636,4.655-11.636,11.636s4.655,11.636,11.636,11.636h22.109    c-3.491,15.127-11.636,27.927-24.436,37.236c-5.818,3.491-6.982,10.473-3.491,16.291c3.491,5.818,10.473,6.982,16.291,3.491    c23.273-15.127,36.073-40.727,36.073-67.491C477.091,36.073,441.018,0,395.636,0z" fill="#FFDA44"/>
	</g>
</g>
<g>
</g>
<g>
</g>
<g>
</g>
<g>
</g>
<g>
</g>
<g>
</g>
<g>
</g>
<g>
</g>
<g>
</g>
<g>
</g>
<g>
</g>
<g>
</g>
<g>
</g>
<g>
</g>
<g>
</g>
</svg>
