<?xml version="1.0" encoding="utf-8"?>
<!-- Generator: Adobe Illustrator 16.0.0, SVG Export Plug-In . SVG Version: 6.00 Build 0)  -->
<!DOCTYPE svg PUBLIC "-//W3C//DTD SVG 1.1//EN" "http://www.w3.org/Graphics/SVG/1.1/DTD/svg11.dtd">
<svg version="1.1" id="Capa_1" xmlns="http://www.w3.org/2000/svg" xmlns:xlink="http://www.w3.org/1999/xlink" x="0px" y="0px"
	 width="512px" height="512px" viewBox="0 0 512 512" enable-background="new 0 0 512 512" xml:space="preserve">
<g>
	<g>
		<path fill="#FFDA44" d="M428.34,112.007c-0.114-0.005-0.229-0.007-0.343-0.007h-72V40c0-13.255,10.745-24,24-24h48
			c4.418,0,8-3.582,8-8s-3.582-8-8-8h-48c-22.08,0.026-39.974,17.92-40,40v72h-104v-2.288c-0.045-38.483-31.23-69.668-69.713-69.712
			h-20.576c-38.483,0.044-69.668,31.229-69.712,69.712v20.576c0.044,38.483,31.229,69.668,69.712,69.712h5.6l12,289
			c0.508,12.876,11.114,23.04,24,23h209.344c12.886,0.04,23.491-10.124,24-23l15.344-368.664
			C436.182,115.922,432.754,112.193,428.34,112.007z M347.996,437.982c4.418,0,8-3.582,8-8V264h25.969l-8.688,189.982H209.711
			L201.023,264h138.973v165.982C339.996,434.4,343.578,437.982,347.996,437.982z M155.996,112c-4.418-0.004-8.003,3.575-8.007,7.993
			c0,0.114,0.002,0.229,0.007,0.343L150.66,184h-4.952c-29.65-0.035-53.677-24.062-53.712-53.712v-20.576
			c0.035-29.65,24.062-53.677,53.712-53.712h20.576c29.65,0.035,53.677,24.062,53.712,53.712V112H155.996z M404.644,488.336
			c-0.18,4.286-3.71,7.668-8,7.664H187.34c-4.29,0.004-7.82-3.378-8-7.664L164.332,128h175.664v120H192.679
			c-0.064,0-0.112,0-0.168,0c-0.056,0-0.112,0-0.168,0c-0.468,0.07-0.928,0.183-1.376,0.336c-0.526,0.077-1.043,0.205-1.544,0.384
			c-0.457,0.244-0.889,0.533-1.288,0.864c-0.427,0.261-0.831,0.558-1.208,0.888c-0.323,0.393-0.607,0.816-0.848,1.264
			c-0.306,0.409-0.573,0.846-0.8,1.304c-0.15,0.504-0.252,1.021-0.304,1.544c-0.144,0.461-0.244,0.936-0.296,1.416
			c0,0.064,0,0.112,0,0.168s0,0.112,0,0.168l9.36,205.982c0.18,4.286,3.71,7.668,8,7.664h178.909c4.29,0.004,7.82-3.378,8-7.664
			l9.36-205.982c0-0.056,0-0.112,0-0.168s0-0.104,0-0.168c-0.051-0.478-0.147-0.949-0.288-1.408
			c-0.053-0.523-0.154-1.04-0.305-1.544c-0.227-0.458-0.493-0.894-0.8-1.304c-0.241-0.448-0.524-0.871-0.848-1.264
			c-0.377-0.33-0.781-0.627-1.208-0.888c-0.399-0.331-0.831-0.62-1.288-0.864c-0.501-0.179-1.018-0.307-1.544-0.384
			c-0.45-0.156-0.913-0.272-1.384-0.344c-0.064,0-0.104,0-0.168,0c-0.064,0-0.112,0-0.168,0h-34.312V128h63.664L404.644,488.336z"/>
	</g>
</g>
<polygon fill="#FFDA44" points="157.5,243.5 424.5,243.5 407.5,504.5 173.5,500.5 "/>
</svg>
