<svg xmlns="http://www.w3.org/2000/svg" width="206" height="18" viewBox="0 0 206 18">
  <path fill="#FFF" fill-rule="evenodd" d="M112.44873,235.490723 C115.523926,237.572754 114.878906,240.887695 113.827637,241.623535 C112.776367,242.359375 109.543457,243.470703 108.995117,242.718262 C108.629557,242.216634 108.629557,241.107422 108.995117,239.390625 C111.410482,241.457682 112.561686,241.457682 112.44873,239.390625 C112.279297,236.290039 109.524414,235.767578 109.165039,235.734863 C108.805664,235.702148 103.707031,237.919922 105.678223,241.806641 C107.649414,245.693359 111.081055,245.151855 114.644531,244.171387 C118.208008,243.190918 135.895508,240.590332 155.40918,239.390625 C174.922852,238.190918 190.503418,238.353027 193.067871,238.339355 C195.632324,238.325684 200.814453,238.977051 201.506836,239.390625 C202.199219,239.804199 203.876465,241.241699 202.417969,241.623535 C200.959473,242.005371 199.237305,239.13916 195.980469,239.390625 C192.723633,239.64209 172.660156,239.271484 161.279785,240.116699 C149.899414,240.961914 129.869141,242.380859 122.606445,244.171387 C115.34375,245.961914 109.924316,247.275879 107.335937,246 C104.747559,244.724121 103.040527,240.214355 104.79834,237.5 C106.556152,234.785645 109.373535,233.408691 112.44873,235.490723 Z M301.547552,235.490723 C304.622747,233.408691 307.44013,234.785645 309.197942,237.5 C310.955755,240.214355 309.248724,244.724121 306.660345,246 C304.071966,247.275879 298.652532,245.961914 291.389837,244.171387 C284.127142,242.380859 264.096868,240.961914 252.716497,240.116699 C241.336126,239.271484 221.272649,239.64209 218.015814,239.390625 C214.758978,239.13916 213.03681,242.005371 211.578314,241.623535 C210.119817,241.241699 211.797064,239.804199 212.489446,239.390625 C213.181829,238.977051 218.363958,238.325684 220.928411,238.339355 C223.492864,238.353027 239.073431,238.190918 258.587103,239.390625 C278.100774,240.590332 295.788274,243.190918 299.351751,244.171387 C302.915228,245.151855 306.346868,245.693359 308.31806,241.806641 C310.289251,237.919922 305.190618,235.702148 304.831243,235.734863 C304.471868,235.767578 301.716985,236.290039 301.547552,239.390625 C301.434596,241.457682 302.585801,241.457682 305.001165,239.390625 C305.366725,241.107422 305.366725,242.216634 305.001165,242.718262 C304.452825,243.470703 301.219915,242.359375 300.168646,241.623535 C299.117376,240.887695 298.472357,237.572754 301.547552,235.490723 Z M198.141602,230.198242 C199.216309,229.431641 202.07373,229.925293 204.130859,231.478027 C205.502279,232.513184 206.213379,235.00651 206.26416,238.958008 C205.871908,236.817057 205.405273,235.325412 204.864258,234.483071 C204.052734,233.219561 202.509277,231.33252 200,230.198242 C197.490723,229.063965 198.568359,233.580566 200,234.400318 C200.954427,234.946819 201.2889,234.27334 201.003418,232.379883 C201.914876,232.829427 202.167518,233.502905 201.761342,234.400318 C201.152078,235.746436 199.41748,235.025879 198.141602,234.400318 C196.865723,233.774757 197.066895,230.964844 198.141602,230.198242 Z M216.122559,230.198242 C217.197266,230.964844 217.398437,233.774757 216.122559,234.400318 C214.84668,235.025879 213.112082,235.746436 212.502818,234.400318 C212.096643,233.502905 212.349284,232.829427 213.260742,232.379883 C212.97526,234.27334 213.309733,234.946819 214.26416,234.400318 C215.695801,233.580566 216.773437,229.063965 214.26416,230.198242 C211.754883,231.33252 210.211426,233.219561 209.399902,234.483071 C208.858887,235.325412 208.392253,236.817057 208,238.958008 C208.050781,235.00651 208.761882,232.513184 210.133301,231.478027 C212.19043,229.925293 215.047852,229.431641 216.122559,230.198242 Z" transform="translate(-104 -229)"/>
</svg>
