<?xml version="1.0" encoding="utf-8"?>
<!-- Generator: Adobe Illustrator 16.0.0, SVG Export Plug-In . SVG Version: 6.00 Build 0)  -->
<!DOCTYPE svg PUBLIC "-//W3C//DTD SVG 1.1//EN" "http://www.w3.org/Graphics/SVG/1.1/DTD/svg11.dtd">
<svg version="1.1" id="Layer_1" xmlns="http://www.w3.org/2000/svg" xmlns:xlink="http://www.w3.org/1999/xlink" x="0px" y="0px"
	 width="29px" height="29px" viewBox="0 0 29 29" enable-background="new 0 0 29 29" xml:space="preserve">
<g>
	<path fill="#FFCC00" d="M21.504,11.385l1.717-0.11c0.002,0,0.006,0,0.01,0c1.223-0.104,2.319-0.751,3.012-1.777l1.355-2.011
		c1.182-1.751,1.639-3.866,1.287-5.955c-0.068-0.411-0.275-0.789-0.584-1.064c-0.309-0.276-0.705-0.439-1.115-0.458
		c-2.096-0.102-4.117,0.611-5.694,2.005l-1.813,1.602c-0.925,0.816-1.429,1.995-1.384,3.235c0,0.003,0,0.006,0,0.009l0.099,1.734
		c0.037,0.676-0.207,1.343-0.672,1.829L3.553,25.131c-0.379,0.4-0.575,0.948-0.551,1.545c0.026,0.656,0.324,1.301,0.797,1.725
		C4.226,28.782,4.813,29,5.4,29c0.063,0,0.126-0.002,0.188-0.008c0.588-0.047,1.104-0.311,1.453-0.74L19.787,12.28
		C20.21,11.754,20.836,11.428,21.504,11.385z M19.107,11.723L6.362,27.693c-0.195,0.24-0.494,0.389-0.843,0.416
		c-0.415,0.035-0.841-0.105-1.139-0.373c-0.298-0.267-0.486-0.676-0.503-1.098c-0.014-0.354,0.095-0.671,0.306-0.894l14.165-14.706
		c0.635-0.664,0.969-1.573,0.918-2.495l-0.099-1.73c-0.033-0.97,0.362-1.893,1.086-2.532l1.813-1.602
		c1.406-1.243,3.211-1.878,5.076-1.788c0.213,0.01,0.418,0.095,0.576,0.237c0.159,0.142,0.268,0.338,0.303,0.55
		c0.312,1.862-0.096,3.748-1.147,5.308L25.518,9c-0.541,0.803-1.399,1.31-2.356,1.393l-1.711,0.109
		C20.537,10.561,19.684,11.005,19.107,11.723z M28.382,25.279l-9.106-8.172c-0.17-0.153-0.437-0.142-0.592,0.026
		c-0.156,0.169-0.145,0.431,0.027,0.584l9.104,8.171c0.218,0.196,0.34,0.487,0.347,0.817c0.008,0.394-0.147,0.787-0.418,1.053
		c-0.271,0.267-0.67,0.421-1.069,0.413c-0.335-0.007-0.63-0.128-0.828-0.339l-8.113-8.776c-0.156-0.17-0.422-0.182-0.594-0.027
		s-0.185,0.416-0.027,0.584l8.117,8.779c0.354,0.381,0.863,0.596,1.43,0.606c0.016,0,0.029,0,0.045,0
		c0.607,0,1.216-0.243,1.634-0.655c0.429-0.422,0.677-1.039,0.665-1.652C28.988,26.133,28.77,25.633,28.382,25.279L28.382,25.279z"
		/>
	<path fill="#FFCC00" d="M5.526,12.042c0.758,0.698,1.743,1.095,2.773,1.12c0.003,0,0.006,0,0.009,0l1.799,0.005
		c0.701,0.002,1.375,0.299,1.848,0.814l0.792,0.869c0.091,0.1,0.215,0.15,0.34,0.15c0.11,0,0.22-0.04,0.308-0.119
		c0.187-0.17,0.201-0.459,0.03-0.646l-0.793-0.869c-0.646-0.704-1.565-1.109-2.521-1.112l-1.794-0.006
		c-0.797-0.02-1.559-0.325-2.149-0.859L0.955,5.201C0.902,5.138,0.906,5.046,0.964,4.988c0.04-0.041,0.087-0.046,0.112-0.046
		c0.025,0,0.072,0.005,0.112,0.046l4.745,4.738c0.469,0.468,1.232,0.468,1.701,0l0.558-0.557l0,0l0.99-0.989l0,0l0,0L9.74,7.623
		c0.469-0.468,0.469-1.23,0-1.699L4.995,1.187c-0.062-0.062-0.062-0.162,0-0.223c0.059-0.059,0.15-0.062,0.214-0.009l6.196,5.205
		c0.535,0.589,0.84,1.351,0.86,2.146l0.005,1.792c0.003,0.954,0.409,1.872,1.115,2.519l0.849,0.772
		c0.188,0.17,0.477,0.157,0.647-0.03s0.156-0.476-0.03-0.646l-0.848-0.771c-0.517-0.473-0.814-1.146-0.816-1.847l-0.006-1.796
		c0-0.003,0-0.006,0-0.01c-0.025-1.029-0.423-2.012-1.122-2.77c-0.013-0.014-0.027-0.027-0.042-0.04L5.798,0.254
		C5.368-0.107,4.744-0.08,4.347,0.316c-0.419,0.418-0.419,1.099,0,1.517l4.745,4.738c0.112,0.112,0.112,0.293,0,0.405L8.858,7.21
		L3.57,1.93c-0.179-0.179-0.469-0.179-0.647,0c-0.179,0.178-0.179,0.468,0,0.646L8.21,7.857L7.868,8.199L2.58,2.918
		c-0.179-0.179-0.469-0.179-0.647,0c-0.179,0.178-0.179,0.468,0,0.646L7.22,8.846L6.986,9.079c-0.112,0.112-0.294,0.112-0.406,0
		L1.835,4.341C1.633,4.139,1.363,4.027,1.076,4.027c-0.287,0-0.556,0.112-0.759,0.314C-0.08,4.737-0.107,5.361,0.255,5.79L5.486,12
		C5.499,12.016,5.512,12.029,5.526,12.042z"/>
</g>
</svg>
