<?xml version="1.0" encoding="utf-8"?>
<!-- Generator: Adobe Illustrator 16.0.0, SVG Export Plug-In . SVG Version: 6.00 Build 0)  -->
<!DOCTYPE svg PUBLIC "-//W3C//DTD SVG 1.1//EN" "http://www.w3.org/Graphics/SVG/1.1/DTD/svg11.dtd">
<svg version="1.1" xmlns="http://www.w3.org/2000/svg" xmlns:xlink="http://www.w3.org/1999/xlink" x="0px" y="0px" width="512px"
	 height="512px" viewBox="0 0 512 512" enable-background="new 0 0 512 512" xml:space="preserve">
<g id="Capa_1">
	<g>
		<path fill="#FFDA44" d="M322.123,221.671l-14.897-21.246c-4.51-6.432-7.176-13.974-7.712-21.812l-9.064-132.706
			c2.014-0.952,3.854-2.277,5.385-3.951c3.271-3.58,4.896-8.403,4.461-13.233l-1.172-12.973C298.313,6.772,290.901,0,281.885,0
			h-51.772c-9.019,0-16.428,6.772-17.239,15.752l-1.171,12.972c-0.436,4.83,1.19,9.653,4.461,13.233
			c1.531,1.675,3.372,2.999,5.387,3.952l-9.063,132.705c-0.535,7.837-3.202,15.379-7.712,21.812l-14.896,21.246
			c-5.518,7.869-8.435,17.109-8.435,26.721v236.183c0,15.123,12.302,27.425,27.424,27.425H276.5c4.143,0,7.5-3.358,7.5-7.5
			c0-4.143-3.357-7.5-7.5-7.5h-67.632c-6.851,0-12.424-5.573-12.424-12.425V248.393c0-6.514,1.977-12.776,5.716-18.109
			l14.896-21.247c6.08-8.67,9.674-18.836,10.396-29.4l1.178-17.255c7.94,8.099,17.437,12.614,27.371,12.614
			c9.935,0,19.431-4.513,27.37-12.613l1.178,17.253c0.722,10.563,4.316,20.73,10.396,29.4l14.897,21.247
			c3.739,5.333,5.717,11.595,5.717,18.109V334c0,4.142,3.357,7.5,7.5,7.5c4.142,0,7.5-3.358,7.5-7.5v-85.608
			C330.557,238.781,327.641,229.542,322.123,221.671L322.123,221.671z M227.813,17.101c0.108-1.197,1.097-2.101,2.299-2.101h51.772
			c1.203,0,2.191,0.903,2.3,2.101l1.171,12.972c0.08,0.883-0.338,1.485-0.596,1.766c-0.256,0.281-0.817,0.751-1.703,0.751h-54.115
			c-0.886,0-1.448-0.471-1.704-0.751c-0.257-0.28-0.675-0.883-0.595-1.766L227.813,17.101z M256,159.997
			c-9.709,0-19.239-7.975-25.745-21.405l6.215-91h39.061l6.216,91C275.239,152.021,265.709,159.997,256,159.997L256,159.997z"/>
		<path fill="#FFDA44" d="M323.057,316.115c-4.142,0-7.5,3.358-7.5,7.501v160.959c0,6.852-5.572,12.425-12.424,12.425h-27
			c-4.142,0-7.5,3.357-7.5,7.5c0,4.142,3.358,7.5,7.5,7.5h27c15.122,0,27.424-12.302,27.424-27.425v-160.96
			C330.557,319.474,327.199,316.115,323.057,316.115L323.057,316.115z"/>
	</g>
</g>
<g id="Layer_2" display="none">
	<path display="inline" fill="#FFDA44" d="M271.278,409.023c-4.142,0-7.5,3.358-7.5,7.5c0,4.289-3.489,7.779-7.778,7.779
		s-7.778-3.49-7.778-7.779c0-4.142-3.358-7.5-7.5-7.5s-7.5,3.358-7.5,7.5c0,12.561,10.218,22.779,22.778,22.779
		c12.561,0,22.778-10.219,22.778-22.779C278.778,412.382,275.422,409.023,271.278,409.023z"/>
	<path display="inline" fill="#FFDA44" d="M240.722,325.207c4.142,0,7.5-3.358,7.5-7.5c0-4.289,3.489-7.778,7.778-7.778
		s7.778,3.489,7.778,7.778c0,4.142,3.358,7.5,7.5,7.5s7.5-3.358,7.5-7.5c0-12.561-10.218-22.778-22.778-22.778
		c-12.56,0-22.778,10.218-22.778,22.778C233.222,321.849,236.58,325.207,240.722,325.207L240.722,325.207z"/>
	<path display="inline" fill="#FFDA44" d="M256,461.559c24.396,0,44.244-19.849,44.244-44.245v-25.47
		c3.262-2.254,5.404-6.014,5.404-10.269v-18.842c0-4.255-2.144-8.015-5.404-10.269v-35.548c0-24.396-19.848-44.245-44.244-44.245
		s-44.245,19.849-44.245,44.245v35.548c-3.261,2.254-5.404,6.014-5.404,10.269v18.842c0,4.255,2.144,8.015,5.404,10.269v25.47
		C211.755,441.711,231.604,461.559,256,461.559z M256,446.558c-16.125,0-29.245-13.119-29.245-29.244v-23.257h58.489v23.257
		C285.244,433.439,272.126,446.558,256,446.558z M256,287.672c16.125,0,29.244,13.119,29.244,29.245v33.335h-10.831
		c-4.142,0-7.5,3.358-7.5,7.501c0,4.142,3.358,7.5,7.5,7.5h16.235v13.803h-69.298v-13.803h16.771c4.142,0,7.5-3.358,7.5-7.5
		c0-4.143-3.358-7.501-7.5-7.501h-11.367v-33.335C226.755,300.791,239.875,287.672,256,287.672L256,287.672z"/>
	<path display="inline" fill="#FFDA44" d="M256,325.202c-4.142,0-7.5,3.358-7.5,7.5v1.125c0,4.143,3.358,7.5,7.5,7.5
		c4.143,0,7.5-3.357,7.5-7.5v-1.125C263.5,328.561,260.143,325.202,256,325.202z"/>
	<path display="inline" fill="#FFDA44" d="M256,67.138c-4.142,0-7.5,3.358-7.5,7.5v45.083c0,4.142,3.358,7.5,7.5,7.5
		c4.143,0,7.5-3.358,7.5-7.5V74.638C263.5,70.496,260.143,67.138,256,67.138z"/>
</g>
</svg>
