<?xml version="1.0" encoding="utf-8"?>
<!-- Generator: Adobe Illustrator 16.0.0, SVG Export Plug-In . SVG Version: 6.00 Build 0)  -->
<!DOCTYPE svg PUBLIC "-//W3C//DTD SVG 1.1//EN" "http://www.w3.org/Graphics/SVG/1.1/DTD/svg11.dtd">
<svg version="1.1" id="Layer_3" xmlns="http://www.w3.org/2000/svg" xmlns:xlink="http://www.w3.org/1999/xlink" x="0px" y="0px"
	 width="512px" height="512px" viewBox="0 0 512 512" enable-background="new 0 0 512 512" xml:space="preserve">
<g>
	<path fill="#FFDA44" d="M352,8c-37,0-67.536,28.056-71.527,64h-60.024l-0.976-12.408C217.184,30.664,192.664,8,163.64,8H112
		c-4.424,0-8,3.584-8,8v24c0,4.416,3.576,8,8,8h49.968c8.376,0,15.224,6.288,15.944,14.632L178.72,72H96
		c-2.744,0-5.296,1.408-6.76,3.72c-1.472,2.32-1.648,5.224-0.472,7.704l22.072,46.512c11.864,38.896,13.448,78.016,4.552,113.152
		c-2.888,11.44-3.944,23.271-3.136,35.184c3.04,44.633,33.96,84.225,76.96,98.528C195.672,378.952,200,385,200,391.872v12.608
		c0,19.903-14.496,36.56-34.456,39.6C112,452.224,112,467.112,112,472c0,31.104,100.536,32,112,32s112-0.896,112-32
		c0-4.888,0-19.776-53.544-27.92c-19.96-3.04-34.456-19.696-34.456-39.6V392c0-6.92,4.272-12.96,10.624-15.024
		C304.904,361.944,336,319.16,336,270.504c0-7.984-0.848-15.96-2.527-23.704c-7.408-34.16-7.761-66.904-1.265-97.632
		C338.607,151,345.225,152,352,152c39.704,0,72-32.304,72-72C424,40.304,391.704,8,352,8L352,8z M368.152,52.536
		c-2.521-1.496-5.248-2.648-8.152-3.4V24.64c9.464,1.36,18.152,5.088,25.473,10.576L368.152,52.536z M344,49.136
		c-2.904,0.752-5.632,1.904-8.152,3.4l-17.32-17.32C325.848,29.728,334.536,26,344,24.64V49.136z M352,64c8.824,0,16,7.176,16,16
		c0,8.336-6.432,15.128-14.584,15.856l5.832-12.472c1.16-2.48,0.968-5.376-0.496-7.68C357.28,73.4,354.736,72,352,72h-13.775
		C341,67.24,346.104,64,352,64z M360,110.864c2.904-0.752,5.632-1.904,8.152-3.4l17.32,17.32
		c-7.32,5.488-16.009,9.216-25.473,10.576V110.864z M379.464,96.152c1.488-2.528,2.64-5.248,3.399-8.152h24.497
		c-1.36,9.464-5.089,18.152-10.576,25.472L379.464,96.152z M382.863,72c-0.752-2.904-1.903-5.632-3.399-8.152l17.32-17.32
		C402.272,53.848,406,62.536,407.36,72H382.863z M307.216,46.528l17.32,17.32c-1.496,2.52-2.647,5.248-3.4,8.152h-24.495
		C298,62.536,301.729,53.848,307.216,46.528z M339.432,88L321.8,125.712c-0.159,0.336-0.288,0.68-0.399,1.032
		c-2.545,8.264-4.496,16.704-6.049,25.256h-34.375c-13.088,0-25.385,5.096-34.625,14.344c-4.888,4.888-11.048,7.976-17.728,9.112
		L221.712,88H339.432z M208.968,192h4.904l9.472,120h-8L205.04,191.808C206.344,191.912,207.648,192,208.968,192z M203.64,175.48
		L196.144,88h9.52l6.944,88h-3.64C207.16,176,205.392,175.76,203.64,175.48z M193.848,61.264C192.424,44.584,178.72,32,161.968,32
		H120v-8h43.64c20.736,0,38.248,16.184,39.872,36.848L204.392,72h-9.624L193.848,61.264z M125.544,123.616L108.648,88h71.44
		l6.8,79.36c-0.4-0.36-0.856-0.632-1.232-1.016C176.416,157.096,164.12,152,151.032,152H132.68
		c-1.744-9.096-3.912-18.208-6.712-27.312C125.848,124.32,125.712,123.96,125.544,123.616L125.544,123.616z M280.048,459.896
		c26.296,4,36.784,9.623,39.472,12.144C313.656,478.176,279.296,488,224,488s-89.656-9.824-95.512-15.96
		c2.688-2.521,13.168-8.144,39.472-12.144C195.8,455.664,216,432.352,216,404.48v-5.616c2.592,0.672,5.248,1.136,8,1.136
		s5.408-0.464,8-1.128v5.608C232,432.352,252.2,455.664,280.048,459.896z M253.688,361.76c-9.048,2.937-15.936,9.776-19.328,18.328
		c-5.824,4.912-14.848,4.928-20.68,0.024c-3.392-8.561-10.312-15.456-19.4-18.48c-36.904-12.28-63.448-46.208-66.04-84.432
		c-0.704-10.224,0.2-20.376,2.68-30.176c6.32-24.984,7.672-51.76,4.296-79.016h15.824c8.816,0,17.088,3.432,23.312,9.656
		c4.192,4.2,9.04,7.488,14.272,9.888l11.408,133.145C200.384,324.824,203.84,328,208,328h24c2.232,0,4.36-0.936,5.872-2.568
		c1.512-1.632,2.272-3.832,2.104-6.056L229.88,191.472c10.48-1.456,20.168-6.2,27.776-13.816c6.224-6.224,14.504-9.656,23.312-9.656
		H313c-2.872,26.344-1.328,53.832,4.824,82.184c1.447,6.64,2.168,13.472,2.168,20.32C320,312.2,293.352,348.872,253.688,361.76z
		 M336.527,131.976L344,116v19.36c-2.68-0.384-5.328-0.936-7.92-1.704C336.248,133.104,336.359,132.536,336.527,131.976
		L336.527,131.976z"/>
</g>
</svg>
