<?xml version="1.0" encoding="utf-8"?>
<!-- Generator: Adobe Illustrator 16.0.0, SVG Export Plug-In . SVG Version: 6.00 Build 0)  -->
<!DOCTYPE svg PUBLIC "-//W3C//DTD SVG 1.1//EN" "http://www.w3.org/Graphics/SVG/1.1/DTD/svg11.dtd">
<svg version="1.1" id="Layer_1" xmlns="http://www.w3.org/2000/svg" xmlns:xlink="http://www.w3.org/1999/xlink" x="0px" y="0px"
	 width="512px" height="336.5px" viewBox="0 0 512 336.5" enable-background="new 0 0 512 336.5" xml:space="preserve">
<path fill="#FFDA44" d="M135.051,121.21c-39.215,0-71.117,31.902-71.117,71.118c0,39.215,31.902,71.117,71.117,71.117
	c39.215,0,71.117-31.902,71.117-71.117C206.168,153.113,174.266,121.21,135.051,121.21z M135.051,233.547
	c-22.727,0-41.215-18.492-41.215-41.219c0-22.729,18.488-41.219,41.215-41.219c22.727,0,41.219,18.493,41.219,41.219
	S157.777,233.547,135.051,233.547z"/>
<path fill="#FFDA44" d="M375.254,121.21c-39.215,0-71.121,31.902-71.121,71.118c0,39.215,31.906,71.117,71.121,71.117
	c39.211,0,71.117-31.902,71.117-71.117C446.371,153.113,414.469,121.21,375.254,121.21z M375.254,233.547
	c-22.73,0-41.219-18.492-41.219-41.219c0-22.729,18.488-41.219,41.219-41.219c22.729,0,41.215,18.493,41.215,41.219
	S397.98,233.547,375.254,233.547z"/>
<path fill="#FFDA44" d="M512,57.278H397.508c-34.062-33.086-86.695-52.68-142.356-52.68c-53.391,0-107.238,20.062-142.293,52.68
	H0.945l30.496,48.527C11.828,129.254,0,159.434,0,192.328c0,74.469,60.586,135.051,135.051,135.051
	c38.496,0,73.277-16.191,97.898-42.117l22.203,51.238l22.2-51.238c24.625,25.931,59.405,42.117,97.901,42.117
	c74.465,0,135.051-60.582,135.051-135.051c0-32.047-11.229-61.518-29.946-84.699L512,57.278z M351.266,59.41
	c-41.918,7.547-77.18,34.504-96.113,71.199c-18.805-36.441-53.711-63.273-95.246-71.031c27.383-15.871,61.324-25.082,95.246-25.082
	C290.672,34.496,324.504,43.5,351.266,59.41z M135.051,297.48c-57.98,0-105.148-47.172-105.148-105.152
	c0-57.979,47.167-105.147,105.148-105.147c57.981,0,105.148,47.168,105.148,105.147C240.199,250.307,193.031,297.48,135.051,297.48z
	 M375.254,297.48c-57.98,0-105.152-47.172-105.152-105.152c0-57.979,47.172-105.147,105.152-105.147
	c57.977,0,105.148,47.168,105.148,105.147C480.402,250.307,433.234,297.48,375.254,297.48z"/>
<path fill="#FFDA44" d="M135.051,176.652c-8.645,0-15.676,7.031-15.676,15.676c0,8.643,7.031,15.672,15.676,15.672
	s15.676-7.029,15.676-15.672C150.727,183.684,143.695,176.652,135.051,176.652z"/>
<path fill="#FFDA44" d="M375.961,176.652c-8.645,0-15.676,7.031-15.676,15.676c0,8.643,7.031,15.672,15.676,15.672
	s15.676-7.029,15.676-15.672C391.637,183.684,384.605,176.652,375.961,176.652z"/>
</svg>
