<?xml version="1.0" encoding="utf-8"?>
<!-- Generator: Adobe Illustrator 16.0.0, SVG Export Plug-In . SVG Version: 6.00 Build 0)  -->
<!DOCTYPE svg PUBLIC "-//W3C//DTD SVG 1.1//EN" "http://www.w3.org/Graphics/SVG/1.1/DTD/svg11.dtd">
<svg version="1.1" id="Layer_1" xmlns="http://www.w3.org/2000/svg" xmlns:xlink="http://www.w3.org/1999/xlink" x="0px" y="0px"
	 width="20px" height="20px" viewBox="0 0 20 20" enable-background="new 0 0 20 20" xml:space="preserve">
<path fill="#FFFFFF" d="M9.5,20c-2.538,0-4.923-0.988-6.718-2.782C0.987,15.424,0,13.038,0,10.501c0-2.538,0.988-4.923,2.782-6.718
	C4.576,1.988,6.962,1,9.5,1s4.923,0.988,6.718,2.783C18.014,5.578,19,7.963,19,10.501s-0.988,4.923-2.782,6.717S12.038,20,9.5,20z
	 M9.5,2C4.813,2,1,5.813,1,10.5C1,15.188,4.813,19,9.5,19c4.688,0,8.5-3.812,8.5-8.5C18,5.813,14.188,2,9.5,2z"/>
<path fill="#FFFFFF" d="M6.5,8C5.673,8,5,7.327,5,6.5S5.673,5,6.5,5S8,5.673,8,6.5S7.327,8,6.5,8z M6.5,6C6.224,6,6,6.224,6,6.5
	S6.224,7,6.5,7S7,6.776,7,6.5S6.776,6,6.5,6z"/>
<path fill="#FFFFFF" d="M12.5,8C11.673,8,11,7.327,11,6.5S11.673,5,12.5,5S14,5.673,14,6.5S13.327,8,12.5,8z M12.5,6
	C12.225,6,12,6.224,12,6.5S12.225,7,12.5,7S13,6.776,13,6.5S12.775,6,12.5,6z"/>
<path fill="#FFFFFF" d="M9.5,17C5.916,17,3,14.084,3,10.5C3,10.224,3.224,10,3.5,10S4,10.224,4,10.5C4,13.533,6.467,16,9.5,16
	s5.5-2.467,5.5-5.5c0-0.276,0.225-0.5,0.5-0.5s0.5,0.224,0.5,0.5C16,14.084,13.084,17,9.5,17z"/>
</svg>
