<?xml version="1.0" encoding="utf-8"?>
<!-- Generator: Adobe Illustrator 16.0.0, SVG Export Plug-In . SVG Version: 6.00 Build 0)  -->
<!DOCTYPE svg PUBLIC "-//W3C//DTD SVG 1.1//EN" "http://www.w3.org/Graphics/SVG/1.1/DTD/svg11.dtd">
<svg version="1.1" id="Layer_1" xmlns="http://www.w3.org/2000/svg" xmlns:xlink="http://www.w3.org/1999/xlink" x="0px" y="0px"
	 width="512px" height="336.5px" viewBox="0 0 512 336.5" enable-background="new 0 0 512 336.5" xml:space="preserve">
<path fill="#FFFFFF" d="M135.051,116.613c-39.215,0-71.117,31.902-71.117,71.117s31.902,71.117,71.117,71.117
	s71.117-31.902,71.117-71.117S174.266,116.613,135.051,116.613z M135.051,228.949c-22.727,0-41.215-18.492-41.215-41.219
	s18.488-41.219,41.215-41.219s41.219,18.492,41.219,41.219S157.777,228.949,135.051,228.949z"/>
<path fill="#FFFFFF" d="M375.254,116.613c-39.215,0-71.121,31.902-71.121,71.117s31.906,71.117,71.121,71.117
	c39.211,0,71.117-31.902,71.117-71.117S414.469,116.613,375.254,116.613z M375.254,228.949c-22.73,0-41.219-18.492-41.219-41.219
	s18.488-41.219,41.219-41.219c22.727,0,41.215,18.492,41.215,41.219S397.98,228.949,375.254,228.949z"/>
<path fill="#FFFFFF" d="M512,52.68H397.508C363.445,19.594,310.812,0,255.152,0c-53.391,0-107.238,20.062-142.293,52.68H0.945
	l30.496,48.527C11.828,124.656,0,154.836,0,187.73c0,74.469,60.586,135.051,135.051,135.051c38.496,0,73.277-16.191,97.898-42.117
	l22.203,51.238l22.199-51.238c24.625,25.93,59.406,42.117,97.902,42.117c74.465,0,135.051-60.582,135.051-135.051
	c0-32.047-11.23-61.516-29.949-84.699L512,52.68z M351.266,54.812c-41.918,7.547-77.18,34.504-96.113,71.199
	c-18.805-36.441-53.711-63.273-95.246-71.031c27.383-15.871,61.324-25.082,95.246-25.082
	C290.672,29.898,324.504,38.902,351.266,54.812z M135.051,292.883c-57.98,0-105.148-47.172-105.148-105.152
	S77.07,82.582,135.051,82.582S240.199,129.75,240.199,187.73S193.031,292.883,135.051,292.883z M375.254,292.883
	c-57.98,0-105.152-47.172-105.152-105.152S317.273,82.582,375.254,82.582c57.977,0,105.148,47.168,105.148,105.148
	S433.234,292.883,375.254,292.883z"/>
<path fill="#FFFFFF" d="M135.051,172.055c-8.645,0-15.676,7.031-15.676,15.676c0,8.641,7.031,15.672,15.676,15.672
	s15.676-7.031,15.676-15.672C150.727,179.086,143.695,172.055,135.051,172.055z"/>
<path fill="#FFFFFF" d="M375.961,172.055c-8.645,0-15.676,7.031-15.676,15.676c0,8.641,7.031,15.672,15.676,15.672
	s15.676-7.031,15.676-15.672C391.637,179.086,384.605,172.055,375.961,172.055z"/>
</svg>
